:SAMPLES-PER-SECOND 30
:FULLY-SPECIFIED
:DEGREES
411
root  -26.3642 43.6812 -3.58562 -171.717 48.356 -176.945
RightUpLeg  -9.93064 -18.2328 -1.19258
RightLeg  19.6401 9.48695 2.69809
RightFoot  35.8696 -1.79493 6.02354
RightToes  -37.202 -0.196526 -0.298777
Spine  -4.50832 1.87996 -0.371303
Spine1  -8.57763 4.20817 -0.169932
HEad  -62.1653 -5.5028 2.25955
LeftShoulder1  -1.94126e-019 -3.10601e-018 -2.51263e-017
LeftArm  -14.0768 -51.2154 -39.7361
LeftForeArm  70.8314 -76.0037 -37.909
LeftHand  -0.656435 -1.52814 11.1796
RightShoulder  -4.96962e-017 0 -2.36833e-017
RightArm  -35.8361 53.0013 40.9186
RightForeArm  72.6715 70.0916 22.6609
RightHand  -0.502904 -3.02631 -24.3087
LeftUpLeg  -11.2678 2.94746 4.70169
LeftLeg  27.3398 3.04553 1.32927
LeftFoot  29.5667 -0.471136 1.94667
LeftToes  -31.2821 1.87998e-006 4.79886e-008
412
root  -26.4117 43.8719 -3.62368 -172.179 50.1897 -177.135
RightUpLeg  -10.1567 -17.1961 -1.50429
RightLeg  19.9482 10.9295 3.16657
RightFoot  38.1265 -2.37098 7.32696
RightToes  -36.8111 -0.193523 -0.296409
Spine  -4.0512 2.6137 -0.619299
Spine1  -7.67509 5.7 -0.772332
HEad  -61.6332 -5.78357 2.56823
LeftShoulder1  -1.94126e-019 -3.10601e-018 -2.51263e-017
LeftArm  -9.8906 -54.5558 -35.9055
LeftForeArm  76.1787 -66.5627 -18.1318
LeftHand  -1.384 -0.824819 25.7011
RightShoulder  -4.96962e-017 0 -2.36833e-017
RightArm  -31.7227 60.4863 39.9764
RightForeArm  67.1329 50.9569 9.01458
RightHand  0.55713 -6.8474 -41.4496
LeftUpLeg  -12.6255 6.90805 5.31692
LeftLeg  32.1177 -1.51033 -0.822657
LeftFoot  32.2387 0.213447 -0.577056
LeftToes  -32.0266 1.87998e-006 4.79886e-008
413
root  -26.4511 43.5979 -3.6793 -172.342 50.9653 -177.629
RightUpLeg  -9.74867 -17.5626 -1.8881
RightLeg  16.951 12.1527 2.84395
RightFoot  37.9324 -2.59023 7.99413
RightToes  -39.5896 -0.215213 -0.312792
Spine  -3.67562 3.14942 -1.0411
Spine1  -7.07198 6.70424 -1.63749
HEad  -60.3114 -6.87672 2.78927
LeftShoulder1  -1.94126e-019 -3.10601e-018 -2.51263e-017
LeftArm  -15.7691 -57.2029 -32.6247
LeftForeArm  70.6877 -69.8607 -22.7166
LeftHand  -1.45506 -2.48852 21.4751
RightShoulder  -4.96962e-017 0 -2.36833e-017
RightArm  -45.1778 64.2564 35.9041
RightForeArm  68.0949 49.2429 8.3067
RightHand  -0.0193127 -5.31418 -33.0364
LeftUpLeg  -14.3486 9.37267 5.82212
LeftLeg  34.8978 -2.63275 -1.59996
LeftFoot  35.5016 0.516128 -1.45071
LeftToes  -32.6859 1.87998e-006 4.79886e-008
414
root  -26.56 42.8471 -3.67435 -171.482 50.6543 -178.009
RightUpLeg  -10.411 -19.4245 -1.71646
RightLeg  13.4102 11.5303 1.96525
RightFoot  35.6483 -2.12831 7.08405
RightToes  -39.7717 -0.216662 -0.313829
Spine  -4.00421 3.04111 -1.23476
Spine1  -7.77855 6.41375 -1.9992
HEad  -58.0242 -7.15402 2.58013
LeftShoulder1  -1.94126e-019 -3.10601e-018 -2.51263e-017
LeftArm  -23.5332 -60.3323 -30.894
LeftForeArm  61.3105 -68.225 -21.5981
LeftHand  -1.10899 -2.12234 17.2631
RightShoulder  -4.96962e-017 0 -2.36833e-017
RightArm  -55.838 68.305 25.0444
RightForeArm  67.37 42.3166 6.14651
RightHand  -0.42487 -3.42221 -24.6073
LeftUpLeg  -16.8077 10.5817 6.21489
LeftLeg  34.9804 -0.983849 -0.603606
LeftFoot  35.8547 0.168105 -0.358106
LeftToes  -33.2108 1.87998e-006 4.79886e-008
415
root  -26.6448 41.6686 -3.7022 -171.577 50.1454 -178.334
RightUpLeg  -10.137 -21.0966 -1.91494
RightLeg  10.6232 10.8552 1.31616
RightFoot  35.5398 -1.9642 6.59934
RightToes  -38.5389 -0.206917 -0.30672
Spine  -3.92159 2.72938 -1.40372
Spine1  -7.67598 5.75017 -2.3109
HEad  -56.23 -6.70754 2.38099
LeftShoulder1  -1.94126e-019 -3.10601e-018 -2.51263e-017
LeftArm  -33.0317 -65.6209 -29.6962
LeftForeArm  51.8922 -57.9943 -13.4829
LeftHand  -0.961393 -3.10727 13.3426
RightShoulder  -4.96962e-017 0 -2.36833e-017
RightArm  -71.1296 72.3779 6.43266
RightForeArm  67.6509 29.5061 3.06104
RightHand  -0.2998 -3.54188 -18.2801
LeftUpLeg  -17.2827 9.99493 6.80797
LeftLeg  32.1576 1.37546 0.740993
LeftFoot  34.3067 -0.314275 1.17968
LeftToes  -33.7169 1.87998e-006 4.79886e-008
416
root  -26.759 40.071 -3.69851 -171.671 50.3368 -178.613
RightUpLeg  -10.3493 -18.8972 -2.453
RightLeg  9.89579 9.45827 1.02733
RightFoot  36.6806 -1.7968 5.90058
RightToes  -35.06 -0.180272 -0.285551
Spine  -3.53678 2.49758 -1.82662
Spine1  -6.99429 5.23104 -3.13668
HEad  -56.0009 -6.37659 3.13611
LeftShoulder1  -1.94126e-019 -3.10601e-018 -2.51263e-017
LeftArm  -47.03 -71.6293 -20.0329
LeftForeArm  46.5402 -45.1519 -8.12313
LeftHand  -0.732232 -3.36641 9.94826
RightShoulder  -4.96962e-017 0 -2.36833e-017
RightArm  -93.3684 73.1687 -18.0711
RightForeArm  72.7915 17.3593 2.60894
RightHand  -0.33306 -2.25272 -12.0733
LeftUpLeg  -17.2717 7.67252 7.60444
LeftLeg  28.2152 1.70044 0.771722
LeftFoot  35.2849 -0.381327 1.36049
LeftToes  -34.1968 1.87998e-006 4.79886e-008
417
root  -26.9082 38.0695 -3.69 -172.095 51.0627 -179.402
RightUpLeg  -11.306 -14.7668 -3.34155
RightLeg  11.2527 7.46949 0.991419
RightFoot  36.3922 -1.38104 4.69462
RightToes  -34.2335 -0.174133 -0.280286
Spine  -3.0326 2.38694 -2.16173
Spine1  -6.09694 5.07188 -3.82761
HEad  -56.9983 -5.59022 3.56399
LeftShoulder1  -1.94126e-019 -3.10601e-018 -2.51263e-017
LeftArm  -61.0835 -72.9919 -4.72024
LeftForeArm  43.2716 -37.3696 -5.9864
LeftHand  -0.492151 -3.06157 6.99786
RightShoulder  -4.96962e-017 0 -2.36833e-017
RightArm  -108.013 71.799 -36.5939
RightForeArm  74.0898 10.284 1.71834
RightHand  -0.241468 0.436167 -4.88277
LeftUpLeg  -17.0826 3.48399 8.29261
LeftLeg  24.2311 1.64573 0.61324
LeftFoot  33.5575 -0.332779 1.26518
LeftToes  -31.4928 1.87998e-006 4.79886e-008
418
root  -27.1785 35.6971 -3.71304 -173.238 51.9544 178.163
RightUpLeg  -15.0945 -13.7697 -4.93754
RightLeg  21.1572 5.87025 1.84196
RightFoot  12.3912 -0.11268 1.53666
RightToes  -38.0262 -0.20291 -0.303703
Spine  -2.84102 2.48262 -2.53904
Spine1  -5.89076 5.44335 -4.6519
HEad  -58.5499 -4.376 2.7015
LeftShoulder1  -1.94126e-019 -3.10601e-018 -2.51263e-017
LeftArm  -66.2087 -70.5251 2.21068
LeftForeArm  40.0741 -35.1407 -5.57096
LeftHand  -0.332893 -3.9108 4.42416
RightShoulder  -4.96962e-017 0 -2.36833e-017
RightArm  -119.481 70.0877 -45.7557
RightForeArm  75.8144 9.44988 1.51464
RightHand  -0.183405 -0.226695 -4.12526
LeftUpLeg  -18.3413 -1.53717 7.75668
LeftLeg  25.0685 5.44468 2.1244
LeftFoot  22.7679 -0.489181 2.59076
LeftToes  -54.0921 1.87998e-006 4.79886e-008
419
root  -27.3755 33.4298 -3.59182 -171.226 52.8362 -177.677
RightUpLeg  -19.4075 -12.3219 -2.04762
RightLeg  33.0627 2.29897 1.28026
RightFoot  -5.92387 -0.0285244 -0.0136631
RightToes  -22.5134 -0.0959083 -0.196717
Spine  -2.05527 2.98167 -1.31916
Spine1  -4.34016 6.77105 -2.32301
HEad  -59.5078 -2.86433 0.522298
LeftShoulder1  -1.94126e-019 -3.10601e-018 -2.51263e-017
LeftArm  -60.9985 -67.5221 -6.57752
LeftForeArm  39.3076 -40.0007 -6.90081
LeftHand  -0.311907 -3.92101 4.15822
RightShoulder  -4.96962e-017 0 -2.36833e-017
RightArm  -109.302 68.4283 -38.1849
RightForeArm  67.9141 16.4184 0.757636
RightHand  -0.212497 -1.02042 -5.55487
LeftUpLeg  -20.8265 0.261252 10.3931
LeftLeg  36.5163 5.19975 3.34125
LeftFoot  -1.8013 -0.00117826 0.0865472
LeftToes  -34.5465 1.87998e-006 4.79886e-008
420
root  -27.8886 32.142 -3.30996 -171.35 52.8437 -176.994
RightUpLeg  -24.4848 -8.2602 -1.70232
RightLeg  43.2521 -1.12245 -0.958131
RightFoot  -12.5183 0.00414328 0.591228
RightToes  -20.6607 -0.0851727 -0.182113
Spine  -1.12329 2.5366 -0.994876
Spine1  -2.45375 5.66062 -1.62726
HEad  -60.1302 -1.33104 -0.106154
LeftShoulder1  -1.94126e-019 -3.10601e-018 -2.51263e-017
LeftArm  -49.7601 -59.5739 -21.4624
LeftForeArm  44.4863 -54.357 -11.9687
LeftHand  -0.568593 -2.1033 9.00495
RightShoulder  -4.96962e-017 0 -2.36833e-017
RightArm  -86.9172 65.6802 -13.1797
RightForeArm  63.1813 37.4683 4.94873
RightHand  -0.268743 -2.20744 -9.53194
LeftUpLeg  -26.5439 1.84196 10.6204
LeftLeg  47.5088 4.3794 4.18371
LeftFoot  -8.08298 -0.0545575 -0.610639
LeftToes  -30.5629 1.87998e-006 4.79886e-008
421
root  -28.2542 31.6798 -3.2975 -172.685 51.2941 -176.958
RightUpLeg  -26.3484 -8.80059 -2.06655
RightLeg  48.9224 -1.73741 -1.79616
RightFoot  -12.947 0.0339585 0.858881
RightToes  -21.5747 -0.0904099 -0.189361
Spine  0.05861 1.86331 -1.04187
Spine1  -0.203082 4.38038 -1.8265
HEad  -60.2405 -0.76048 0.637217
LeftShoulder1  -1.94126e-019 -3.10601e-018 -2.51263e-017
LeftArm  -37.0673 -48.4328 -34.2719
LeftForeArm  55.6094 -68.4023 -22.3854
LeftHand  -1.03475 -1.23431 18.2142
RightShoulder  -4.96962e-017 0 -2.36833e-017
RightArm  -62.6217 56.356 12.6323
RightForeArm  59.7657 57.0277 12.0926
RightHand  0.0317015 -5.53761 -27.1164
LeftUpLeg  -28.7244 3.19703 10.1122
LeftLeg  52.2328 3.27384 3.69007
LeftFoot  -9.7331 -0.0639654 -0.589749
LeftToes  -26.1515 1.87998e-006 4.79886e-008
422
root  -28.5943 31.7539 -3.42616 -172.897 49.4074 -177.161
RightUpLeg  -25.496 -12.0199 -2.75271
RightLeg  47.3605 -0.658597 -0.669683
RightFoot  -12.3652 -0.00840378 0.472987
RightToes  -23.2815 -0.100497 -0.202669
Spine  0.234892 1.09659 -1.33
Spine1  0.255013 2.77156 -2.40439
HEad  -58.5797 -1.29977 1.63695
LeftShoulder1  -1.94126e-019 -3.10601e-018 -2.51263e-017
LeftArm  -26.0965 -35.352 -44.4324
LeftForeArm  76.6919 -76.1976 -36.7315
LeftHand  -1.54636 -0.627277 29.4897
RightShoulder  -4.96962e-017 0 -2.36833e-017
RightArm  -46.3058 43.3305 31.9134
RightForeArm  73.2759 68.0059 19.6364
RightHand  1.00823 -7.56902 -49.1343
LeftUpLeg  -28.6275 3.29346 9.55133
LeftLeg  50.6117 2.06124 2.19412
LeftFoot  -10.7423 -0.0477109 -0.345941
LeftToes  -24.1247 1.87998e-006 4.79886e-008
423
root  -28.8735 32.248 -3.67008 -172.115 49.091 -176.818
RightUpLeg  -23.7795 -14.1093 -3.08156
RightLeg  42.64 0.881886 0.683414
RightFoot  -9.60345 -0.0420597 0.038914
RightToes  -25.195 -0.112271 -0.217223
Spine  0.00957771 0.945407 -1.31969
Spine1  0.0441508 2.34788 -2.30262
HEad  -56.5558 -2.79146 1.80366
LeftShoulder1  -1.94126e-019 -3.10601e-018 -2.51263e-017
LeftArm  -19.9396 -20.7952 -53.6279
LeftForeArm  89.2471 -78.1719 -43.2443
LeftHand  -1.7839 -0.740326 33.1871
RightShoulder  -4.96962e-017 0 -2.36833e-017
RightArm  -39.7287 27.2371 45.4663
RightForeArm  86.3284 73.7038 27.3536
RightHand  0.00447374 -5.35061 -51.91
LeftUpLeg  -26.7816 4.06252 9.36317
LeftLeg  45.8752 1.01913 0.915782
LeftFoot  -9.81232 -0.0168169 -0.0344063
LeftToes  -29.4987 1.87998e-006 4.79886e-008
